<svg width="83" height="83" viewBox="0 0 83 83" fill="none" xmlns="http://www.w3.org/2000/svg">
<path d="M63.3438 23.3438C63.3438 35.403 53.5593 45.1875 41.5 45.1875C29.4407 45.1875 19.6562 35.403 19.6562 23.3438C19.6562 11.2845 29.4407 1.5 41.5 1.5C53.5593 1.5 63.3438 11.2845 63.3438 23.3438ZM41.5 55.9688C45.8221 55.9688 49.933 55.0299 53.6415 53.375H62.25C72.8827 53.375 81.5 61.9923 81.5 72.625V75.2188C81.5 78.6862 78.6862 81.5 75.2188 81.5H7.78125C4.31378 81.5 1.5 78.6862 1.5 75.2188V72.625C1.5 61.9923 10.1173 53.375 20.75 53.375H29.3597C33.0804 55.029 37.1758 55.9688 41.5 55.9688Z" fill="#D8E3F2" stroke="#26734F" stroke-width="3"/>
</svg>
